<svg xmlns="http://www.w3.org/2000/svg" xmlns:xlink="http://www.w3.org/1999/xlink" width="896" height="1024" preserveAspectRatio="xMidYMid meet" viewBox="0 0 896 1024" style="-ms-transform: rotate(360deg); -webkit-transform: rotate(360deg); transform: rotate(360deg);"><path d="M842 712l-20-25l-19.5-26l-19-29.5l-15-30l-11.5-33l-4-31.5V328q0-67-24-127.5t-64.5-104T567 27T446 1q-84 0-154.5 44T181 164t-40 164v209q0 18-5 36.5t-18 40t-20 32T72 681t-22 28l-18 25.5l-14 22l-10.5 22L5 798l5 21q17 33 83 33h183q0 71 50 121t121 50t121-50t50-121h187q66 0 81-33q4-7 4.5-14.5t0-13.5t-4.5-14.5t-7-14.5t-10.5-16t-12.5-16t-14-18zM447 956q-21 0-40-8.5t-33-22t-22.5-33T343 852h208q0 43-30.5 73.5T447 956zm358-172H81q6-10 24-34q1-2 20-27t25-33t21-32.5t20.5-39.5t11.5-38t6-43V328q0-108 68.5-183.5T446 69q29 0 56 7t50.5 19.5t44 30.5t37 40.5t28 47.5t17.5 54t6 60v209q0 31 9 62.5t27.5 61.5t32 48.5T789 755l4.5 6l4.5 5.5l5 6l4.5 5.5l4.5 6h-7z" fill="#626262"/><rect x="0" y="0" width="896" height="1024" fill="rgba(0, 0, 0, 0)" /></svg>