<?xml version="1.0" encoding="utf-8"?>
<!-- Generator: Adobe Illustrator 23.0.6, SVG Export Plug-In . SVG Version: 6.00 Build 0)  -->
<svg version="1.1" id="Warstwa_1" xmlns="http://www.w3.org/2000/svg" xmlns:xlink="http://www.w3.org/1999/xlink" x="0px" y="0px"
	 viewBox="0 0 36 33.8" style="enable-background:new 0 0 36 33.8;" xml:space="preserve">
<style type="text/css">
	.st0{enable-background:new    ;}
</style>
<g id="_" class="st0">
	<path d="M36,16.9h-2.2v14.7c0,0.6-0.2,1.1-0.7,1.6c-0.4,0.4-1,0.7-1.6,0.7h-27c-0.6,0-1.2-0.2-1.6-0.7c-0.4-0.4-0.6-1-0.6-1.6V16.9
		H0v-6.7C0,9.6,0.2,9,0.7,8.6c0.4-0.4,1-0.7,1.6-0.7h3.9C5,6.9,4.5,5.6,4.5,4.1c0-0.7,0.1-1.3,0.4-1.9c0.3-0.6,0.7-1.1,1.4-1.5
		C6.9,0.2,7.8,0,8.8,0c1,0,1.9,0.2,2.9,0.7c1,0.5,1.9,1.1,2.7,1.8c0.8,0.8,1.5,1.5,2.1,2.2c0.6,0.7,1.1,1.4,1.6,2.2
		c0.2-0.3,0.3-0.6,0.5-0.8c0.2-0.3,0.4-0.5,0.6-0.9s0.5-0.6,0.8-0.9c0.3-0.3,0.5-0.6,0.8-0.9s0.6-0.6,0.9-0.9c0.3-0.3,0.6-0.5,1-0.8
		c0.3-0.3,0.7-0.5,1.1-0.7c0.4-0.2,0.7-0.4,1.1-0.5c0.4-0.2,0.8-0.3,1.2-0.4S26.9,0,27.3,0c1,0,1.8,0.2,2.5,0.6
		c0.7,0.4,1.1,0.9,1.4,1.5c0.3,0.6,0.4,1.2,0.4,1.9c0,1.5-0.5,2.8-1.6,3.8h3.8c0.2,0,0.3,0,0.5,0.1s0.3,0.1,0.4,0.1
		c0.1,0.1,0.3,0.1,0.4,0.2c0.1,0.1,0.2,0.2,0.3,0.3s0.2,0.2,0.3,0.3c0.1,0.1,0.1,0.2,0.2,0.4c0,0.1,0.1,0.3,0.1,0.4
		C36,9.9,36,10,36,10.2V16.9z M2.2,14.7h14.6v-4.5H2.2V14.7z M4.5,31.6h12.3V16.9H4.5V31.6z M8.5,2.3C7.3,2.3,6.7,2.9,6.7,4
		c0,1.2,0.6,2.1,1.7,2.8c1.1,0.7,2.4,1.1,3.8,1.1h3.8c-1-1.5-2.2-2.8-3.5-3.9C11.3,2.8,10,2.2,8.8,2.2C8.7,2.2,8.6,2.3,8.5,2.3z
		 M33.7,10.2H19.1v4.5h14.6V10.2z M31.5,16.9H19.1v14.7h12.4V16.9z M25.2,2.8c-0.7,0.4-1.4,0.8-2,1.4S22,5.4,21.5,6
		c-0.5,0.6-1,1.2-1.4,1.9h3.8c0.9,0,1.8-0.1,2.6-0.4s1.5-0.7,2-1.3c0.5-0.6,0.8-1.3,0.8-2.1c0-1.2-0.7-1.8-2-1.8
		C26.6,2.2,25.9,2.4,25.2,2.8z"/>
</g>
</svg>
