<?xml version="1.0" encoding="utf-8"?>
<!-- Generator: Adobe Illustrator 23.0.6, SVG Export Plug-In . SVG Version: 6.00 Build 0)  -->
<svg version="1.1" id="Warstwa_1" xmlns="http://www.w3.org/2000/svg" xmlns:xlink="http://www.w3.org/1999/xlink" x="0px" y="0px"
	 viewBox="0 0 36.1 32.5" style="enable-background:new 0 0 36.1 32.5;" xml:space="preserve">
<style type="text/css">
	.st0{enable-background:new    ;}
</style>
<g id="_" class="st0">
	<path d="M10.1,0c2.3,0,5,1.5,7.9,4.4c1.2-1.3,2.5-2.3,3.9-3.1C23.3,0.4,24.6,0,25.9,0c1.4,0,2.7,0.3,3.8,0.8
		C30.8,1.3,31.9,2,33,3.1c2.1,2,3.1,4.5,3.1,7.4c0,2.9-1,5.4-3.1,7.5c-0.1,0.1-4.3,4.6-12.6,13.6c-0.7,0.7-1.4,1-2.4,1
		s-1.7-0.3-2.3-1c-1.6-1.7-3-3.2-4.1-4.5S9.2,24.4,8,23.1s-2.2-2.5-3.2-3.5c-0.9-1-1.5-1.7-1.7-1.9c-1-1-1.8-2.2-2.3-3.5
		c-0.5-1.3-0.8-2.6-0.8-4c0-1.3,0.3-2.6,0.8-4c0.5-1.3,1.3-2.5,2.3-3.5c1-1,2-1.7,3.2-2.1C7.5,0.2,8.7,0,10.1,0z M7.1,2.8
		C6.2,3.1,5.4,3.6,4.7,4.4C3.1,6,2.2,7.9,2.2,10.2c0,0.3,0,0.5,0,0.8c0,0.3,0.1,0.6,0.1,0.8c0.1,0.3,0.1,0.5,0.2,0.8
		c0.1,0.3,0.2,0.5,0.3,0.8c0.1,0.2,0.2,0.5,0.4,0.7c0.1,0.2,0.3,0.5,0.4,0.7C3.8,15,4,15.2,4.1,15.5c0.2,0.2,0.4,0.4,0.5,0.6
		c0.8,0.8,5,5.4,12.6,13.9c0.2,0.2,0.5,0.3,0.7,0.3c0.1,0,0.2,0,0.4-0.1s0.3-0.1,0.4-0.2c8.3-9,12.5-13.5,12.6-13.6
		c1.6-1.6,2.4-3.6,2.4-5.9c0-2.3-0.8-4.2-2.4-5.8C29.8,3,28,2.2,25.9,2.2c-0.3,0-0.5,0-0.9,0.1s-0.6,0.2-1,0.3
		c-0.3,0.2-0.7,0.3-1,0.5c-0.4,0.2-0.7,0.5-1.1,0.7c-0.4,0.3-0.8,0.6-1.1,0.9S20,5.6,19.7,5.9l-1.6,1.6L16.5,6
		c-2.5-2.5-4.6-3.7-6.3-3.7C9,2.2,8,2.4,7.1,2.8z"/>
</g>
</svg>
