<?xml version="1.0" encoding="utf-8"?>
<!-- Generator: Adobe Illustrator 23.0.6, SVG Export Plug-In . SVG Version: 6.00 Build 0)  -->
<svg version="1.1" id="Warstwa_1" xmlns="http://www.w3.org/2000/svg" xmlns:xlink="http://www.w3.org/1999/xlink" x="0px" y="0px"
	 viewBox="0 0 36 36" style="enable-background:new 0 0 36 36;" xml:space="preserve">
<style type="text/css">
	.st0{enable-background:new    ;}
</style>
<g id="lifebuoy" class="st0">
	<path d="M33.6,9c1.6,2.8,2.4,5.8,2.4,9s-0.8,6.3-2.4,9c-1.6,2.8-3.8,5-6.6,6.6c-2.8,1.6-5.8,2.4-9,2.4c-3.3,0-6.3-0.8-9-2.4
		S4,29.8,2.4,27C0.8,24.3,0,21.3,0,18s0.8-6.3,2.4-9C4,6.2,6.2,4,9,2.4C11.7,0.8,14.7,0,18,0c3.3,0,6.3,0.8,9,2.4
		C29.8,4,32,6.2,33.6,9z M2.4,20.2h6.9C9.1,19.5,9,18.7,9,18s0.1-1.5,0.3-2.2H2.4c0,0.2,0,0.4-0.1,0.6c0,0.2,0,0.4-0.1,0.6
		c0,0.2,0,0.4,0,0.6c0,0.2,0,0.4,0,0.6C2.2,18.7,2.3,19.5,2.4,20.2z M9.1,5.1C6,7.1,4,10,2.9,13.5h7.3c0.4-0.7,0.9-1.3,1.4-1.8
		c0.6-0.6,1.2-1,1.8-1.4V2.9C11.9,3.4,10.5,4.1,9.1,5.1z M13.5,25.8c-1.4-0.8-2.5-1.9-3.3-3.3H2.9c0.7,2.5,2.1,4.7,4,6.6
		c1.9,1.9,4.1,3.2,6.6,4V25.8z M23.8,14.6c-0.6-1-1.4-1.9-2.5-2.5s-2.2-0.9-3.4-0.9c-1.9,0-3.4,0.7-4.8,2c-1.3,1.3-2,2.9-2,4.8
		c0,1.2,0.3,2.3,0.9,3.4c0.6,1,1.4,1.9,2.5,2.5c1,0.6,2.2,0.9,3.4,0.9c1.9,0,3.4-0.7,4.8-2s2-2.9,2-4.8
		C24.7,16.8,24.4,15.7,23.8,14.6z M15.7,9.3C16.5,9.1,17.3,9,18,9c0.7,0,1.5,0.1,2.2,0.3V2.4c-0.8-0.1-1.5-0.2-2.2-0.2
		c-0.8,0-1.5,0.1-2.2,0.2V9.3z M20.2,26.7C19.5,26.9,18.8,27,18,27c-0.7,0-1.5-0.1-2.3-0.3v6.9c0.8,0.1,1.5,0.2,2.2,0.2
		c0.7,0,1.5-0.1,2.2-0.2V26.7z M22.5,10.2c1.4,0.8,2.5,1.9,3.3,3.3h7.3c-0.4-1.3-0.9-2.5-1.6-3.6c-0.7-1.1-1.5-2.1-2.4-3
		c-0.9-0.9-1.9-1.7-3-2.4c-1.1-0.7-2.3-1.2-3.6-1.6V10.2z M27.2,30.8c1.4-1,2.6-2.2,3.6-3.7c1-1.4,1.8-3,2.3-4.7h-7.3
		c-0.8,1.4-1.9,2.5-3.3,3.3v7.3C24.2,32.6,25.7,31.8,27.2,30.8z M33.6,20.2c0.1-0.8,0.2-1.5,0.2-2.2s-0.1-1.5-0.2-2.2h-6.9
		c0.2,0.8,0.3,1.5,0.3,2.2c0,0.4,0,0.8-0.1,1.1c0,0.4-0.1,0.8-0.2,1.1H33.6z"/>
</g>
</svg>
