<?xml version="1.0" encoding="utf-8"?>
<!-- Generator: Adobe Illustrator 23.0.6, SVG Export Plug-In . SVG Version: 6.00 Build 0)  -->
<svg version="1.1" id="Warstwa_1" xmlns="http://www.w3.org/2000/svg" xmlns:xlink="http://www.w3.org/1999/xlink" x="0px" y="0px"
	 viewBox="0 0 409.6 293.9" style="enable-background:new 0 0 409.6 293.9;" xml:space="preserve">
<g>
	<path d="M166.2,0H12C5.4,0,0,5.4,0,12v154.2c0,6.6,5.4,12,12,12h65.1v103.7c0,6.6,5.4,12,12,12h38.6c5.2,0,9.7-3.3,11.4-8.2
		L177.6,170c0.4-1.2,0.6-2.5,0.6-3.8V12C178.2,5.4,172.9,0,166.2,0L166.2,0z M154.2,164.3L119,269.9h-17.9V166.2c0-6.6-5.4-12-12-12
		H24V24h130.2V164.3z M154.2,164.3"/>
	<path d="M397.6,0H243.4c-6.6,0-12,5.4-12,12v154.2c0,6.6,5.4,12,12,12h65.1v103.7c0,6.6,5.4,12,12,12H359c5.2,0,9.8-3.3,11.4-8.2
		L409,170c0.4-1.2,0.6-2.5,0.6-3.8V12C409.6,5.4,404.2,0,397.6,0L397.6,0z M385.6,164.3l-35.2,105.6h-17.9V166.2c0-6.6-5.4-12-12-12
		h-65.1V24h130.2V164.3z M385.6,164.3"/>
</g>
</svg>
