<?xml version="1.0" encoding="utf-8"?>
<!-- Generator: Adobe Illustrator 23.0.6, SVG Export Plug-In . SVG Version: 6.00 Build 0)  -->
<svg version="1.1" id="Warstwa_1" xmlns="http://www.w3.org/2000/svg" xmlns:xlink="http://www.w3.org/1999/xlink" x="0px" y="0px"
	 viewBox="0 0 25.9 18" style="enable-background:new 0 0 25.9 18;" xml:space="preserve">
<style type="text/css">
	.st0{clip-path:url(#SVGID_2_);fill:#1E201D;}
</style>
<g>
	<g>
		<defs>
			<rect id="SVGID_1_" width="25.9" height="18"/>
		</defs>
		<clipPath id="SVGID_2_">
			<use xlink:href="#SVGID_1_"  style="overflow:visible;"/>
		</clipPath>
		<path class="st0" d="M17,0.3c-0.3-0.4-0.9-0.4-1.3,0c-0.3,0.3-0.3,0.9,0,1.3L22.1,8H0.9C0.4,8,0,8.4,0,8.9c0,0.5,0.4,0.9,0.9,0.9
			h21.2l-6.4,6.4c-0.3,0.4-0.3,0.9,0,1.3c0.4,0.4,0.9,0.4,1.3,0l8-8c0.4-0.3,0.4-0.9,0-1.3L17,0.3z M17,0.3"/>
	</g>
</g>
</svg>
