<?xml version="1.0" encoding="utf-8"?>
<!-- Generator: Adobe Illustrator 23.0.6, SVG Export Plug-In . SVG Version: 6.00 Build 0)  -->
<svg version="1.1" id="Warstwa_1" xmlns="http://www.w3.org/2000/svg" xmlns:xlink="http://www.w3.org/1999/xlink" x="0px" y="0px"
	 viewBox="0 0 313.1 391.2" style="enable-background:new 0 0 313.1 391.2;" xml:space="preserve">
<g>
	<path d="M313,338.2L290.6,85.9c-0.5-5.6-5.2-9.8-10.7-9.8h-46.1C233.2,34,198.8,0,156.6,0c-42.2,0-76.6,34-77.3,76.1H33.2
		c-5.6,0-10.2,4.2-10.7,9.8L0.1,338.2c0,0.3-0.1,0.6-0.1,1c0,28.7,26.3,52.1,58.7,52.1h195.7c32.4,0,58.7-23.4,58.7-52.1
		C313.1,338.8,313.1,338.5,313,338.2L313,338.2z M156.6,21.6c30.3,0,55,24.3,55.7,54.5H100.9C101.5,45.9,126.2,21.6,156.6,21.6
		L156.6,21.6z M254.4,369.6H58.7c-20.3,0-36.8-13.4-37.1-30L43,97.8h36.2v32.8c0,6,4.8,10.8,10.8,10.8s10.8-4.8,10.8-10.8V97.8
		h111.4v32.8c0,6,4.8,10.8,10.8,10.8s10.8-4.8,10.8-10.8V97.8H270l21.5,241.8C291.2,356.2,274.6,369.6,254.4,369.6L254.4,369.6z
		 M254.4,369.6"/>
</g>
</svg>
