<svg xmlns="http://www.w3.org/2000/svg" xmlns:xlink="http://www.w3.org/1999/xlink" width="1024" height="928" preserveAspectRatio="xMidYMid meet" viewBox="0 0 1024 928" style="-ms-transform: rotate(360deg); -webkit-transform: rotate(360deg); transform: rotate(360deg);"><path d="M1024 242q0-11-2.5-22.5t-9.5-27t-24-28.5t-42-20L223 0q-26 0-48 13t-35 35t-13 48v128H95q-39 1-67 29T0 320v512q0 40 28 68t68 28h832q40 0 68-28t28-68V242zM191 96q0-13 8.5-22T221 64l706 143l-2.5 4.5l-10 9L896 224H191V96zm769 736q0 13-9.5 22.5T928 864H96q-13 0-22.5-9.5T64 832V320q0-13 9.5-22.5T96 288h800q26 0 45-8.5t19-23.5v576zM191.5 512q-26.5 0-45 19T128 576.5t18.5 45t45 18.5t45.5-18.5t19-45t-19-45.5t-45.5-19z" fill="#626262"/><rect x="0" y="0" width="1024" height="928" fill="rgba(0, 0, 0, 0)" /></svg>